# xmcd
#
# Track frame offsets: 
#        150
#        11014
#        23683
#        37059
#        47187
#        59619
#        70001
#        79745
#        90840
#        100165
#        111249
#        121922
#        132571
#        144287
#        155791
#        166370
#        178080
#        189004
#        199765
#        211855
#        224303
#        234517
#
# Disc length: 3264 seconds
#
# Revision: 0
# Processed by: cddbd v1.5.2PL0 Copyright (c) Steve Scherf et al.
# Submitted via: ExactAudioCopyFreeDBPlugin 1.0
#
DISCID=300cbe16
DTITLE=Various Artist - Jukebox Jam
DYEAR=2011
DGENRE=Blues
TTITLE0=Rose Mitchell - Baby Please Don't Go
TTITLE1=Mr. Sad Head - Hot Weather Blues
TTITLE2=Big Maybelle - I've Got a Feeling
TTITLE3=Bunker Hill - You Can't Make Me Doubt My Baby
TTITLE4=Jay Swan - You Don't Love Me
TTITLE5=Jack Tucker - Crazy Do
TTITLE6=Little Arther Mathews - I'm Gonna Whale on You
TTITLE7=Etta James - Mobody Loves You Like I Do
TTITLE8=Ervin Tucker - Baby You Were Meant For Me
TTITLE9=Frances Burr - I  Say No, No More
TTITLE10=Mike Robinson - Lula
TTITLE11=Big Tiny Kennedy - Country Boy
TTITLE12=Little Esther - Hound Dog
TTITLE13=Roy Brown - Mr. Hound Dog's In Town
TTITLE14=Otis Blackwell - Let The Daddy Hold You
TTITLE15=Eunice Davis - Get Your Enjoys
TTITLE16=Marga Benitez - Geechie Goomie
TTITLE17=Vernon Dilworth - Shorty
TTITLE18=Terry Timmons - Got Nobody to Love
TTITLE19=Jeannie Barnes - Can't Get You Off My Mind
TTITLE20=Arthur Griswald - Pretty Mama Blues
TTITLE21=Ben Harper - I Can't Takit No Longer
EXTD=
EXTT0=
EXTT1=
EXTT2=
EXTT3=
EXTT4=
EXTT5=
EXTT6=
EXTT7=
EXTT8=
EXTT9=
EXTT10=
EXTT11=
EXTT12=
EXTT13=
EXTT14=
EXTT15=
EXTT16=
EXTT17=
EXTT18=
EXTT19=
EXTT20=
EXTT21=
PLAYORDER=
